<svg width="19" height="17" viewBox="0 0 19 17" fill="none" xmlns="http://www.w3.org/2000/svg">
<g clip-path="url(#clip0_14_308)">
<path d="M18.075 8.3C18.075 3.71604 14.0288 0 9.03751 0C4.04623 0 0 3.71604 0 8.3C0 12.4427 3.30487 15.8765 7.6254 16.4992V10.6992H5.33072V8.3H7.6254V6.47141C7.6254 4.39122 8.97467 3.24219 11.039 3.24219C12.0275 3.24219 13.062 3.4043 13.062 3.4043V5.44688H11.9224C10.7998 5.44688 10.4496 6.08672 10.4496 6.74375V8.3H12.9561L12.5554 10.6992H10.4496V16.4992C14.7701 15.8765 18.075 12.4427 18.075 8.3Z" fill="white"/>
</g>
<defs>
<clipPath id="clip0_14_308">
<rect width="18.075" height="16.6" fill="white"/>
</clipPath>
</defs>
</svg>
