<svg width="19" height="17" viewBox="0 0 19 17" fill="none" xmlns="http://www.w3.org/2000/svg">
<g clip-path="url(#clip0_14_301)">
<path d="M9.56757 1.49465C11.9823 1.49465 12.2682 1.50438 13.2179 1.54328C14.1005 1.57895 14.577 1.71512 14.8948 1.82859C15.3149 1.97774 15.6185 2.1593 15.9327 2.44785C16.2504 2.73965 16.4446 3.01524 16.607 3.40106C16.7305 3.69285 16.8788 4.13379 16.9176 4.9411C16.96 5.81649 16.9706 6.0791 16.9706 8.29352C16.9706 10.5112 16.96 10.7738 16.9176 11.6459C16.8788 12.4565 16.7305 12.8942 16.607 13.186C16.4446 13.5718 16.2469 13.8506 15.9327 14.1392C15.6149 14.431 15.3149 14.6093 14.8948 14.7584C14.577 14.8719 14.0969 15.0081 13.2179 15.0438C12.2647 15.0827 11.9788 15.0924 9.56757 15.0924C7.15285 15.0924 6.8669 15.0827 5.91725 15.0438C5.03468 15.0081 4.55809 14.8719 4.24036 14.7584C3.82026 14.6093 3.51665 14.4277 3.20246 14.1392C2.88473 13.8474 2.69057 13.5718 2.52817 13.186C2.40461 12.8942 2.25634 12.4532 2.21751 11.6459C2.17514 10.7706 2.16455 10.5079 2.16455 8.29352C2.16455 6.07586 2.17514 5.81324 2.21751 4.9411C2.25634 4.13055 2.40461 3.69285 2.52817 3.40106C2.69057 3.01524 2.88826 2.73641 3.20246 2.44785C3.52018 2.15606 3.82026 1.97774 4.24036 1.82859C4.55809 1.71512 5.03821 1.57895 5.91725 1.54328C6.8669 1.50438 7.15285 1.49465 9.56757 1.49465ZM9.56757 0C7.11402 0 6.80688 0.00972656 5.84311 0.0486328C4.88287 0.0875391 4.22271 0.230195 3.6508 0.434453C3.05419 0.648438 2.54935 0.930508 2.04805 1.39414C1.54322 1.85453 1.23609 2.31817 1.00309 2.86285C0.78068 3.39133 0.625347 3.99438 0.582984 4.87625C0.54062 5.76461 0.530029 6.04668 0.530029 8.3C0.530029 10.5533 0.54062 10.8354 0.582984 11.7205C0.625347 12.6024 0.78068 13.2087 1.00309 13.7339C1.23609 14.2818 1.54322 14.7455 2.04805 15.2059C2.54935 15.6663 3.05419 15.9516 3.64727 16.1623C4.22271 16.3666 4.87934 16.5092 5.83958 16.5481C6.80335 16.587 7.11049 16.5968 9.56404 16.5968C12.0176 16.5968 12.3247 16.587 13.2885 16.5481C14.2487 16.5092 14.9089 16.3666 15.4808 16.1623C16.0739 15.9516 16.5787 15.6663 17.08 15.2059C17.5813 14.7455 17.892 14.2818 18.1215 13.7372C18.3439 13.2087 18.4992 12.6056 18.5416 11.7238C18.5839 10.8386 18.5945 10.5566 18.5945 8.30325C18.5945 6.04992 18.5839 5.76785 18.5416 4.88274C18.4992 4.00086 18.3439 3.39457 18.1215 2.86934C17.899 2.31816 17.5919 1.85453 17.0871 1.39414C16.5858 0.93375 16.0809 0.648438 15.4879 0.437695C14.9124 0.233438 14.2558 0.0907813 13.2956 0.051875C12.3283 0.00972657 12.0211 0 9.56757 0Z" fill="white"/>
<path d="M9.56756 4.0365C7.00457 4.0365 4.92523 5.94615 4.92523 8.29998C4.92523 10.6538 7.00457 12.5635 9.56756 12.5635C12.1305 12.5635 14.2099 10.6538 14.2099 8.29998C14.2099 5.94615 12.1305 4.0365 9.56756 4.0365ZM9.56756 11.0656C7.90479 11.0656 6.55622 9.82705 6.55622 8.29998C6.55622 6.77291 7.90479 5.53439 9.56756 5.53439C11.2303 5.53439 12.5789 6.77291 12.5789 8.29998C12.5789 9.82705 11.2303 11.0656 9.56756 11.0656Z" fill="white"/>
<path d="M15.4773 3.86791C15.4773 4.41908 14.9901 4.86326 14.3935 4.86326C13.7933 4.86326 13.3097 4.41584 13.3097 3.86791C13.3097 3.31674 13.7969 2.87256 14.3935 2.87256C14.9901 2.87256 15.4773 3.31998 15.4773 3.86791Z" fill="white"/>
</g>
<defs>
<clipPath id="clip0_14_301">
<rect width="18.0751" height="16.6" fill="white" transform="translate(0.530029)"/>
</clipPath>
</defs>
</svg>
