<svg width="19" height="17" viewBox="0 0 19 17" fill="none" xmlns="http://www.w3.org/2000/svg">
<g clip-path="url(#clip0_14_298)">
<path d="M17.0322 0H1.62961C0.891783 0 0.295166 0.534961 0.295166 1.19637V15.4004C0.295166 16.0618 0.891783 16.6 1.62961 16.6H17.0322C17.77 16.6 18.3702 16.0618 18.3702 15.4036V1.19637C18.3702 0.534961 17.77 0 17.0322 0ZM5.65765 14.1457H2.97465V6.22176H5.65765V14.1457ZM4.31615 5.14211C3.45476 5.14211 2.7593 4.5034 2.7593 3.71555C2.7593 2.9277 3.45476 2.28899 4.31615 2.28899C5.17401 2.28899 5.86947 2.9277 5.86947 3.71555C5.86947 4.50016 5.17401 5.14211 4.31615 5.14211ZM15.6978 14.1457H13.0183V10.2939C13.0183 9.37641 13.0006 8.19301 11.6238 8.19301C10.2294 8.19301 10.0175 9.19485 10.0175 10.2291V14.1457H7.3416V6.22176H9.91164V7.30465H9.94694C10.3035 6.68215 11.179 6.02399 12.4817 6.02399C15.1965 6.02399 15.6978 7.66453 15.6978 9.79789V14.1457Z" fill="white"/>
</g>
<defs>
<clipPath id="clip0_14_298">
<rect width="18.075" height="16.6" fill="white" transform="translate(0.295166)"/>
</clipPath>
</defs>
</svg>
