<svg width="68" height="77" viewBox="0 0 68 77" fill="none" xmlns="http://www.w3.org/2000/svg">
<path d="M45.6 60H31.14C30.66 60 30.42 59.76 30.42 59.28V56.22C30.42 55.74 30.66 55.5 31.14 55.5H35.76V40.8H13.44V55.5H18.06C18.58 55.5 18.84 55.74 18.84 56.22V59.28C18.84 59.76 18.58 60 18.06 60H3.66C3.14 60 2.88 59.76 2.88 59.28V56.22C2.88 55.74 3.14 55.5 3.66 55.5H8.22V21.42H3.66C3.14 21.42 2.88 21.18 2.88 20.7V17.64C2.88 17.16 3.14 16.92 3.66 16.92H18.06C18.58 16.92 18.84 17.16 18.84 17.64V20.7C18.84 21.18 18.58 21.42 18.06 21.42H13.44V36.42H35.76V21.42H31.14C30.66 21.42 30.42 21.18 30.42 20.7V17.64C30.42 17.16 30.66 16.92 31.14 16.92H45.6C46.08 16.92 46.32 17.16 46.32 17.64V20.7C46.32 21.18 46.08 21.42 45.6 21.42H40.98V55.5H45.6C46.08 55.5 46.32 55.74 46.32 56.22V59.28C46.32 59.76 46.08 60 45.6 60Z" fill="#3A86FF"/>
<path d="M67.2 60H61.5C59.78 60 58.92 59.16 58.92 57.48V41.7C58.92 39.38 58.36 37.58 57.24 36.3C56.12 35.02 54.48 34.38 52.32 34.38C50.68 34.38 49.42 34.64 48.54 35.16C47.7 35.64 47.06 36.08 46.62 36.48C46.18 36.84 45.82 37.2 45.54 37.56C45.06 38.2 44.66 38.86 44.34 39.54V55.98H47.52C48.04 55.98 48.3 56.22 48.3 56.7V59.28C48.3 59.76 48.04 60 47.52 60H36.06C35.54 60 35.28 59.76 35.28 59.28V56.7C35.28 56.22 35.54 55.98 36.06 55.98H39.36V20.94H36.06C35.54 20.94 35.28 20.7 35.28 20.22V17.64C35.28 17.16 35.54 16.92 36.06 16.92H43.62C44.1 16.92 44.34 17.16 44.34 17.64V31.02C44.34 32.34 44.26 33.56 44.1 34.68H44.22C46.18 31.6 49.3 30.06 53.58 30.06C56.78 30.06 59.28 31 61.08 32.88C62.88 34.76 63.8 37.3 63.84 40.5V55.98H67.2C67.72 55.98 67.98 56.22 67.98 56.7V59.28C67.98 59.76 67.72 60 67.2 60Z" fill="white"/>
</svg>
