<svg width="19" height="17" viewBox="0 0 19 17" fill="none" xmlns="http://www.w3.org/2000/svg">
<g clip-path="url(#clip0_14_306)">
<path d="M6.45113 15.0438C13.2702 15.0438 17.001 9.85402 17.001 5.35483C17.001 5.20893 16.9975 5.05979 16.9904 4.91389C17.7162 4.43187 18.3425 3.83482 18.84 3.15079C18.1641 3.42698 17.4464 3.60735 16.7116 3.68575C17.4853 3.2598 18.0646 2.59066 18.3422 1.80236C17.6143 2.19855 16.8183 2.47802 15.9882 2.6288C15.4289 2.08304 14.6895 1.72168 13.8841 1.60059C13.0788 1.47951 12.2525 1.60544 11.5329 1.95891C10.8133 2.31238 10.2406 2.87371 9.90323 3.55612C9.56587 4.23852 9.48267 5.00399 9.66651 5.73417C8.19261 5.66624 6.75071 5.31461 5.43427 4.70206C4.11784 4.08952 2.95626 3.22974 2.02485 2.17846C1.55146 2.92804 1.4066 3.81503 1.61972 4.65917C1.83283 5.50332 2.38793 6.24126 3.1722 6.72303C2.58342 6.70587 2.00754 6.56028 1.49213 6.29831V6.34046C1.4916 7.12708 1.78771 7.8896 2.33013 8.49839C2.87254 9.10719 3.62778 9.52468 4.46746 9.67991C3.92205 9.81696 3.34961 9.83693 2.79446 9.73827C3.0314 10.4148 3.4924 11.0065 4.11313 11.4308C4.73385 11.8551 5.48333 12.0908 6.25696 12.1051C4.94357 13.0526 3.32114 13.5665 1.65099 13.5641C1.35481 13.5636 1.05891 13.547 0.764893 13.5141C2.46158 14.5138 4.43529 15.0448 6.45113 15.0438Z" fill="white"/>
</g>
<defs>
<clipPath id="clip0_14_306">
<rect width="18.0751" height="16.6" fill="white" transform="translate(0.764893)"/>
</clipPath>
</defs>
</svg>
